<svg xmlns="http://www.w3.org/2000/svg"  viewBox="0 0 64 64" width="128px" height="128px" fill-rule="evenodd" clip-rule="evenodd"><path fill="#c2cde7" d="M31.944,59.979c0.507,0.021,0.73-0.073,1.679-0.496l18.54-7.57c0.3-0.118,0.494-0.212,0.727-0.324 l0.092-0.044c0.124-0.09,0.372-0.272,0.49-0.368c0.322-0.392,0.354-0.711,0.406-1.229l0.018-0.168 c0.026-0.255,0.039-0.532,0.039-0.831V13.105c0-2.406-0.682-3.065-3.171-3.065H13.171c-2.49,0-3.171,0.659-3.171,3.065v35.844 c0,0.298,0.012,0.575,0.039,0.832l0.018,0.167c0.051,0.516,0.083,0.835,0.406,1.229c0.118,0.096,0.366,0.277,0.49,0.367 l0.092,0.044c0.232,0.112,0.426,0.206,0.714,0.319l18.523,7.563C31.261,59.907,31.491,60.008,31.944,59.979z"/><path fill="#8d6c9f" d="M41.956,2c-0.551,0-1,0.449-1,1v2c0,0.551,0.449,1,1,1s1-0.449,1-1V3 C42.956,2.449,42.506,2,41.956,2z"/><path fill="#8d6c9f" d="M36.956,2c-0.551,0-1,0.449-1,1v2c0,0.551,0.449,1,1,1s1-0.449,1-1V3 C37.956,2.449,37.506,2,36.956,2z"/><path fill="#8d6c9f" d="M51.956,2c-0.551,0-1,0.449-1,1v2c0,0.551,0.449,1,1,1s1-0.449,1-1V3 C52.956,2.449,52.506,2,51.956,2z"/><path fill="#8d6c9f" d="M46.956,2c-0.551,0-1,0.449-1,1v2c0,0.551,0.449,1,1,1s1-0.449,1-1V3 C47.956,2.449,47.506,2,46.956,2z"/><path fill="#8d6c9f" d="M31.956,2c-0.551,0-1,0.449-1,1v2c0,0.551,0.449,1,1,1c0.551,0,1-0.449,1-1V3 C32.956,2.449,32.506,2,31.956,2z"/><path fill="#8d6c9f" d="M26.956,2c-0.551,0-1,0.449-1,1v2c0,0.551,0.449,1,1,1s1-0.449,1-1V3 C27.956,2.449,27.506,2,26.956,2z"/><path fill="#8d6c9f" d="M21.956,2c-0.551,0-1,0.449-1,1v2c0,0.551,0.449,1,1,1s1-0.449,1-1V3 C22.956,2.449,22.506,2,21.956,2z"/><path fill="#8d6c9f" d="M16.956,2c-0.551,0-1,0.449-1,1v2c0,0.551,0.449,1,1,1s1-0.449,1-1V3 C17.956,2.449,17.506,2,16.956,2z"/><path fill="#8d6c9f" d="M11.956,2c-0.551,0-1,0.449-1,1v2c0,0.551,0.449,1,1,1s1-0.449,1-1V3 C12.956,2.449,12.506,2,11.956,2z"/><path fill="#8d6c9f" d="M-617.791-614.957c-0.062,0-0.125,0-0.185,0c-0.86,0-1.434-0.256-2.363-0.671l-18.481-7.545 c-0.33-0.129-0.562-0.24-0.838-0.374l-0.327-0.175c-0.723-0.524-0.792-0.604-0.858-0.679c-0.777-0.9-0.86-1.726-0.926-2.39 l-0.016-0.154c-0.035-0.322-0.05-0.67-0.05-1.044v-35.844c0-3.503,1.595-5.065,5.171-5.065h37.591 c3.577,0,5.171,1.563,5.171,5.065v35.844c0,0.373-0.016,0.721-0.05,1.042l-0.016,0.156c-0.066,0.664-0.149,1.489-0.923,2.386 c-0.069,0.079-0.138,0.158-0.861,0.683l-0.327,0.175c-0.277,0.134-0.508,0.245-0.851,0.379l-18.498,7.553 C-616.328-615.213-616.901-614.957-617.791-614.957z M-617.891-616.958c0.507,0.021,0.73-0.073,1.679-0.496l18.54-7.57 c0.3-0.118,0.494-0.212,0.727-0.324l0.092-0.044c0.124-0.09,0.372-0.272,0.49-0.368c0.322-0.392,0.354-0.711,0.406-1.229 l0.018-0.168c0.026-0.255,0.039-0.532,0.039-0.831v-35.844c0-2.406-0.682-3.065-3.171-3.065h-37.591 c-2.49,0-3.171,0.659-3.171,3.065v35.844c0,0.298,0.012,0.575,0.039,0.832l0.018,0.167c0.051,0.516,0.083,0.835,0.406,1.229 c0.118,0.096,0.366,0.277,0.49,0.367l0.092,0.044c0.232,0.112,0.426,0.206,0.714,0.319l18.523,7.563 C-618.575-617.03-618.345-616.93-617.891-616.958z" transform="translate(649.836 676.938)"/><path fill="#fff" d="M-575.303-241.04l-0.008,0.083l-0.008,0.091l-0.017,0.083l-0.025,0.083l-0.016,0.075 l-0.025,0.083l-0.033,0.075l-0.033,0.066l-0.033,0.075l-0.042,0.066l-0.042,0.066l-0.049,0.066l-0.042,0.066l-0.049,0.058 l-0.058,0.058l-0.049,0.05l-0.066,0.058l-0.058,0.05l-0.066,0.05l-0.066,0.041l-0.066,0.05l-0.075,0.041l-0.074,0.033 l-0.074,0.041l-0.083,0.033l-0.083,0.033l-0.083,0.025l-0.082,0.025l-0.075,0.025l-0.082,0.017l-0.074,0.017l-0.074,0.017 l-0.083,0.017l-0.083,0.008l-0.074,0.008l-0.083,0.008l-0.091,0.008l-0.083,0.008h-0.083h-0.091h-0.091h-0.083l-0.083-0.008 h-0.091l-0.083-0.008l-0.083-0.008l-0.091-0.008l-0.083-0.017l-0.082-0.008l-0.083-0.017l-0.083-0.017l-0.082-0.017 l-0.083-0.017l-0.083-0.025l-0.074-0.017l-0.083-0.025l-0.083-0.025l-0.075-0.033l-0.083-0.025l-0.074-0.025l-0.083-0.033 l-0.075-0.033l-0.074-0.033l-0.074-0.041l-0.075-0.033l-0.074-0.042l-0.066-0.041l-0.075-0.042l-0.066-0.041l-0.066-0.041 l-0.066-0.05l-0.066-0.05l-0.066-0.05l-0.066-0.05l-0.058-0.05l-0.066-0.058l0.05-0.066l0.058-0.058l0.05-0.066l0.058-0.066 l0.05-0.058l0.049-0.066l0.058-0.066l0.049-0.058l0.058-0.066l0.049-0.058l0.058-0.066l0.049-0.066l0.05-0.058l0.058-0.066 l0.05-0.066l0.058-0.058l0.05-0.066l0.066,0.05l0.074,0.05l0.066,0.05l0.074,0.05l0.066,0.041l0.074,0.05l0.066,0.042 l0.075,0.033l0.066,0.042l0.074,0.033l0.075,0.033l0.074,0.033l0.074,0.025l0.075,0.033l0.083,0.025l0.083,0.025l0.074,0.025 l0.083,0.017l0.083,0.017l0.083,0.017l0.091,0.008l0.083,0.017h0.083l0.091,0.008h0.083h0.099l0.091-0.008l0.083-0.017 l0.074-0.017l0.074-0.017l0.066-0.025l0.058-0.033l0.066-0.05l0.049-0.058l0.033-0.066l0.025-0.075l0.008-0.083v-0.017 l-0.008-0.1l-0.033-0.083l-0.042-0.058l-0.058-0.05l-0.066-0.05l-0.066-0.033l-0.074-0.033l-0.083-0.033l-0.099-0.041 l-0.058-0.017l-0.066-0.017l-0.075-0.025l-0.074-0.017l-0.083-0.025l-0.083-0.017l-0.091-0.025l-0.083-0.017l-0.091-0.025 l-0.083-0.017l-0.083-0.025l-0.082-0.017l-0.083-0.025l-0.075-0.025l-0.082-0.017l-0.074-0.025l-0.074-0.025l-0.075-0.025 l-0.091-0.033l-0.083-0.033l-0.083-0.033l-0.083-0.033l-0.074-0.041l-0.083-0.041l-0.066-0.041l-0.074-0.041l-0.066-0.05 l-0.066-0.041l-0.058-0.05l-0.058-0.058l-0.058-0.058l-0.05-0.058l-0.049-0.058l-0.042-0.058l-0.041-0.066l-0.041-0.075 l-0.033-0.058l-0.025-0.066l-0.024-0.075l-0.025-0.066l-0.017-0.083l-0.017-0.075l-0.008-0.083l-0.008-0.083l-0.008-0.091 v-0.091v-0.017v-0.083l0.008-0.083l0.008-0.075l0.008-0.083l0.017-0.075l0.017-0.075l0.025-0.075l0.017-0.075l0.033-0.075 l0.033-0.075l0.033-0.075l0.041-0.075l0.041-0.075l0.049-0.066l0.05-0.066l0.058-0.066l0.058-0.058l0.058-0.066l0.066-0.058 l0.058-0.041l0.066-0.05l0.066-0.05l0.066-0.041l0.075-0.041l0.074-0.033l0.074-0.041l0.075-0.033l0.082-0.025l0.083-0.033 l0.075-0.025l0.066-0.017l0.074-0.017l0.075-0.017l0.083-0.017l0.074-0.017l0.083-0.008l0.083-0.008l0.083-0.008l0.083-0.008 h0.082h0.091h0.091h0.091l0.091,0.008l0.091,0.008h0.082l0.091,0.008l0.083,0.017l0.091,0.008l0.083,0.017l0.075,0.017 l0.083,0.017l0.083,0.017l0.074,0.017l0.083,0.025l0.074,0.025l0.074,0.017l0.083,0.033l0.074,0.025l0.074,0.033l0.074,0.033 l0.083,0.033l0.074,0.041l0.066,0.033l0.075,0.041l0.074,0.041l0.066,0.042l0.075,0.05l0.066,0.041l0.066,0.05l0.066,0.05 l0.066,0.05l-0.049,0.066l-0.042,0.066l-0.049,0.066l-0.05,0.066l-0.049,0.075l-0.042,0.066l-0.05,0.066l-0.049,0.066 l-0.041,0.066l-0.049,0.066l-0.05,0.066l-0.042,0.066l-0.049,0.075l-0.05,0.066l-0.049,0.066l-0.042,0.066l-0.049,0.066 l-0.066-0.05l-0.074-0.042l-0.066-0.041l-0.066-0.05l-0.074-0.033l-0.066-0.042l-0.074-0.033l-0.066-0.033l-0.075-0.033 l-0.066-0.033l-0.074-0.025l-0.066-0.033l-0.091-0.025l-0.083-0.025l-0.083-0.025l-0.083-0.017l-0.082-0.017l-0.083-0.017 l-0.083-0.008l-0.083-0.008l-0.074-0.008h-0.083h-0.099l-0.091,0.017l-0.083,0.017l-0.074,0.017l-0.066,0.033l-0.058,0.033 l-0.074,0.066l-0.05,0.075l-0.033,0.075l-0.008,0.083v0.017l0.008,0.108l0.041,0.091l0.033,0.05l0.058,0.058l0.075,0.041 l0.066,0.041l0.083,0.033l0.091,0.033l0.099,0.033l0.066,0.017l0.066,0.025l0.075,0.017l0.074,0.025l0.083,0.017l0.091,0.025 l0.091,0.025l0.091,0.025l0.091,0.017l0.083,0.025l0.091,0.025l0.083,0.017l0.083,0.025l0.083,0.025l0.074,0.025l0.083,0.025 l0.074,0.025l0.074,0.025l0.091,0.033l0.082,0.042l0.083,0.033l0.083,0.041l0.075,0.042l0.074,0.041l0.066,0.041l0.066,0.05 l0.066,0.041l0.066,0.058l0.066,0.058l0.058,0.066l0.058,0.058l0.049,0.066l0.05,0.075l0.041,0.066l0.042,0.075l0.033,0.066 l0.025,0.075l0.024,0.075l0.017,0.075l0.017,0.083l0.017,0.083l0.008,0.083l0.008,0.091v0.091v0.017v0.091L-575.303-241.04z M-581.099-239.38h-0.083h-0.083h-0.083h-0.083h-0.083h-0.083h-0.082h-0.083h-0.091h-0.083h-0.083h-0.083h-0.083h-0.082h-0.083 h-0.082h-0.083h-0.083h-0.083h-0.083h-0.083h-0.083h-0.083h-0.083h-0.083h-0.083h-0.083h-0.083h-0.091h-0.083h-0.083h-0.082 h-0.083h-0.083h-0.083h-0.083h-0.083h-0.083h-0.083h-0.083h-0.083h-0.083h-0.082h-0.083h-0.082h-0.083H-585h-0.091h-0.083 h-0.083h-0.083h-0.083h-0.083h-0.082h-0.083h-0.083h-0.083v-0.083v-0.083v-0.083v-0.083v-0.083v-0.083v-0.083v-0.083v-0.083 v-0.083v-0.083v-0.083v-0.083v-0.083v-0.083v-0.083v-0.083v-0.083v-0.075v-0.083v-0.083v-0.083v-0.083v-0.083v-0.083v-0.083 v-0.083v-0.083v-0.083v-0.083v-0.083v-0.083v-0.083v-0.083v-0.083v-0.083v-0.083v-0.083v-0.083v-0.083v-0.083v-0.083v-0.083 v-0.083v-0.083v-0.083v-0.083v-0.083v-0.083v-0.083v-0.083v-0.083v-0.083v-0.083v-0.075v-0.083v-0.083v-0.083v-0.083v-0.083 v-0.083v-0.083v-0.083v-0.083v-0.083v-0.083v-0.083v-0.083v-0.083v-0.083v-0.083v-0.083v-0.083h0.083h0.083h0.083h0.082h0.083 h0.083h0.083h0.083h0.083h0.083h0.083h0.083h0.082h0.083h0.075h0.083h0.083h0.083h0.083h0.082h0.083h0.083h0.083h0.083h0.083 h0.083h0.083h0.083h0.082h0.083h0.083h0.083h0.082h0.082h0.083h0.083h0.082h0.083h0.083h0.083h0.083h0.082h0.083h0.075h0.083 h0.083h0.083h0.083h0.083h0.083h0.083h0.083h0.083h0.083h0.083h0.083h0.083h0.083v0.083v0.075v0.083v0.083v0.083v0.075v0.083 v0.083v0.075v0.083v0.083v0.075v0.083v0.083v0.083v0.075v0.083h-0.083h-0.083h-0.083h-0.083h-0.083h-0.083h-0.075h-0.083h-0.082 h-0.083h-0.083h-0.083h-0.083h-0.083h-0.083h-0.083h-0.082h-0.083h-0.083h-0.074h-0.083h-0.082h-0.083h-0.082h-0.083h-0.083 h-0.083h-0.082h-0.083h-0.083h-0.083h-0.083h-0.074h-0.083h-0.083h-0.083h-0.083h-0.083h-0.083v0.083v0.083v0.083v0.083v0.083 v0.075v0.083v0.083v0.083v0.083v0.083v0.083h0.083h0.083h0.083h0.083h0.083h0.083h0.082h0.083h0.075h0.083h0.083h0.082h0.083 h0.083h0.083h0.082h0.083h0.082h0.083h0.082h0.083h0.083h0.083h0.083h0.083h0.082h0.074h0.083h0.083h0.083h0.082h0.083h0.083 h0.083h0.083v0.083v0.075v0.083v0.083v0.075v0.083v0.083v0.075v0.083v0.083v0.083v0.075v0.083v0.083v0.075v0.083h-0.083h-0.083 h-0.083h-0.083h-0.082h-0.083h-0.083h-0.083h-0.074h-0.082h-0.083h-0.083h-0.083h-0.083h-0.083h-0.082h-0.083h-0.082h-0.083 h-0.082h-0.083h-0.083h-0.083h-0.082h-0.083h-0.083h-0.075h-0.083h-0.082h-0.083h-0.083h-0.083h-0.083h-0.083h-0.083v0.083 v0.091v0.083v0.083v0.091v0.083v0.083v0.091v0.083v0.083v0.091v0.083h0.083h0.083h0.083h0.083h0.083h0.083h0.082h0.083h0.083 h0.091h0.083h0.083h0.083h0.083h0.083h0.083h0.083h0.083h0.083h0.083h0.083h0.083h0.082h0.083h0.082h0.083h0.083h0.083h0.083 h0.091h0.083h0.082h0.083h0.083h0.083h0.083h0.083h0.083h0.083v0.083v0.075v0.083v0.083v0.083v0.075v0.083v0.083v0.075v0.083 v0.083v0.075v0.083v0.083v0.083v0.075v0.083H-581.099z M-587.138-239.38h-0.082h-0.083h-0.091h-0.083h-0.083h-0.083h-0.083 h-0.083h-0.091h-0.083h-0.083h-0.083h-0.083h-0.083h-0.091h-0.083h-0.083h-0.083v-0.083v-0.083v-0.083v-0.083v-0.084v-0.083 v-0.083v-0.083v-0.083v-0.083v-0.083v-0.083v-0.083v-0.083v-0.083v-0.083v-0.084v-0.083v-0.083v-0.083v-0.083v-0.083v-0.084 v-0.083v-0.083v-0.083v-0.083v-0.083v-0.084v-0.083v-0.083v-0.083v-0.083v-0.083v-0.084v-0.083v-0.083v-0.083v-0.083v-0.084 v-0.083v-0.083v-0.083l-0.041,0.066l-0.049,0.075l-0.042,0.066l-0.049,0.066l-0.041,0.075l-0.05,0.066l-0.041,0.066 l-0.042,0.075l-0.049,0.066l-0.042,0.066l-0.05,0.066l-0.041,0.075l-0.05,0.066l-0.041,0.066l-0.042,0.075l-0.05,0.067 l-0.041,0.066l-0.05,0.075l-0.041,0.066l-0.05,0.066l-0.041,0.075l-0.042,0.066l-0.05,0.066l-0.041,0.075l-0.05,0.067 l-0.041,0.066l-0.05,0.066l-0.042,0.075l-0.041,0.067l-0.05,0.066l-0.041,0.075l-0.05,0.066l-0.041,0.066l-0.049,0.075 l-0.042,0.066h-0.033l-0.05-0.075l-0.042-0.067l-0.049-0.075l-0.042-0.066l-0.049-0.075l-0.041-0.067l-0.049-0.075l-0.042-0.066 l-0.05-0.075l-0.041-0.066l-0.05-0.075l-0.041-0.066l-0.05-0.075l-0.042-0.066l-0.049-0.075l-0.042-0.066l-0.049-0.075 l-0.05-0.066l-0.042-0.075l-0.049-0.066l-0.042-0.075l-0.049-0.066l-0.041-0.075l-0.049-0.066l-0.042-0.075l-0.05-0.066 l-0.041-0.075l-0.05-0.067l-0.041-0.075l-0.05-0.066l-0.042-0.075l-0.049-0.066l-0.042-0.075l-0.049-0.066v0.083v0.083v0.083 v0.083v0.083v0.083v0.083v0.083v0.083v0.083v0.075v0.083v0.083v0.083v0.084v0.083v0.083v0.083v0.083v0.083v0.083v0.083v0.083 v0.083v0.083v0.083v0.084v0.083v0.083v0.083v0.083v0.083v0.075v0.083v0.083v0.083v0.083v0.083v0.084v0.083v0.083v0.083v0.083 h-0.083h-0.083h-0.083h-0.082h-0.083h-0.083h-0.083h-0.083h-0.083h-0.083h-0.083h-0.083h-0.083h-0.083h-0.082h-0.083h-0.083 h-0.083h-0.083v-0.083v-0.083v-0.083v-0.083v-0.083v-0.083v-0.083v-0.083v-0.083v-0.083v-0.083v-0.083v-0.083v-0.083v-0.083 v-0.083v-0.083v-0.083v-0.075v-0.083v-0.083v-0.083v-0.083v-0.083v-0.083v-0.083v-0.083v-0.083v-0.083v-0.083v-0.083v-0.083 v-0.083v-0.083v-0.083v-0.083v-0.083v-0.083v-0.083v-0.083v-0.083v-0.083v-0.083v-0.083v-0.083v-0.083v-0.083v-0.083v-0.083 v-0.083v-0.083v-0.083v-0.083v-0.083v-0.075v-0.083v-0.083v-0.083v-0.083v-0.083v-0.083v-0.083v-0.083v-0.083v-0.083v-0.083 v-0.083v-0.083v-0.083v-0.083v-0.083v-0.083v-0.083h0.083h0.083h0.074h0.082h0.083h0.083h0.074h0.083h0.083h0.083h0.074h0.083 h0.083h0.083h0.074h0.083h0.083h0.083h0.074h0.083h0.083l0.041,0.066l0.042,0.075l0.049,0.066l0.042,0.075l0.042,0.066 l0.041,0.075l0.041,0.066l0.049,0.075l0.041,0.066l0.042,0.066l0.041,0.074l0.042,0.066l0.049,0.075l0.042,0.066l0.042,0.074 l0.041,0.066l0.05,0.066l0.042,0.074l0.041,0.066l0.042,0.075l0.041,0.066l0.05,0.074l0.042,0.066l0.041,0.075l0.042,0.066 l0.041,0.066l0.05,0.075l0.042,0.066l0.041,0.075l0.042,0.066l0.041,0.075l0.05,0.066l0.041,0.074l0.041,0.066l0.042-0.066 l0.042-0.074l0.049-0.066l0.041-0.075l0.041-0.066l0.042-0.075l0.049-0.066l0.042-0.075l0.042-0.066l0.041-0.066l0.05-0.075 l0.041-0.066l0.042-0.074l0.041-0.066l0.049-0.075l0.042-0.066l0.042-0.074l0.041-0.066l0.042-0.066l0.049-0.074l0.041-0.066 l0.042-0.075l0.041-0.066l0.05-0.074l0.041-0.066l0.041-0.066l0.042-0.075l0.049-0.066l0.042-0.075l0.041-0.066l0.042-0.075 l0.05-0.066l0.041-0.075l0.041-0.066h0.083h0.083h0.075h0.083h0.082h0.083h0.075h0.083h0.082h0.083h0.075h0.083h0.082h0.083 h0.075h0.083h0.083h0.082h0.075h0.083h0.082v0.083v0.083v0.083v0.083v0.083v0.083v0.083v0.083v0.083v0.083v0.083v0.083v0.083 v0.083v0.083v0.083v0.083v0.083v0.075v0.083v0.083v0.083v0.083v0.083v0.083v0.083v0.083v0.083v0.083v0.083v0.083v0.083v0.083 v0.083v0.083v0.083v0.083v0.083v0.083v0.083v0.083v0.083v0.083v0.083v0.083v0.083v0.083v0.083v0.083v0.083v0.083v0.083v0.083 v0.083v0.075v0.083v0.083v0.083v0.083v0.083v0.083v0.083v0.083v0.083v0.083v0.083v0.083v0.083v0.083v0.083v0.083v0.083v0.083 H-587.138z M-596.727-241.87l-0.025-0.075l-0.033-0.083l-0.033-0.075l-0.025-0.075l-0.033-0.075l-0.033-0.083l-0.025-0.075 l-0.033-0.075l-0.033-0.075l-0.025-0.075l-0.033-0.083l-0.024-0.075l-0.033-0.075l-0.033-0.075l-0.025-0.075l-0.033-0.083 l-0.033-0.075l-0.025-0.075l-0.033-0.075l-0.033-0.083l-0.025-0.075l-0.033-0.075l-0.033,0.075l-0.025,0.075l-0.033,0.083 l-0.033,0.075l-0.024,0.075l-0.033,0.075l-0.033,0.083l-0.033,0.075l-0.025,0.075l-0.033,0.075l-0.033,0.075l-0.024,0.083 l-0.033,0.075l-0.033,0.075l-0.025,0.075l-0.033,0.075l-0.033,0.083l-0.033,0.075l-0.024,0.075l-0.033,0.075l-0.033,0.083 l-0.025,0.075l-0.033,0.075h0.083h0.082h0.083h0.083h0.083h0.083h0.083h0.083h0.074h0.083h0.083h0.083h0.082h0.083h0.083h0.083 h0.083L-596.727-241.87z M-594.132-239.38h-0.083h-0.074h-0.082h-0.083h-0.082h-0.083h-0.074h-0.083h-0.083h-0.082h-0.083 h-0.083h-0.074h-0.083h-0.083h-0.083h-0.083h-0.074h-0.083h-0.083l-0.033-0.075l-0.025-0.075l-0.033-0.075l-0.033-0.083 l-0.024-0.074l-0.033-0.075l-0.033-0.075l-0.024-0.075l-0.033-0.075l-0.033-0.075l-0.025-0.075l-0.033-0.083l-0.033-0.075 l-0.025-0.075l-0.033-0.075h-0.083h-0.082h-0.083h-0.083h-0.075h-0.083h-0.082h-0.083h-0.083h-0.083h-0.083h-0.082h-0.083 h-0.083h-0.074h-0.083h-0.083h-0.082h-0.083h-0.083h-0.083h-0.083h-0.082h-0.083h-0.075h-0.082h-0.083h-0.083h-0.083 l-0.033,0.075l-0.025,0.075l-0.033,0.075l-0.033,0.083l-0.024,0.075l-0.033,0.075l-0.033,0.075l-0.025,0.075l-0.033,0.075 l-0.033,0.075l-0.025,0.074l-0.033,0.083l-0.033,0.075l-0.025,0.075l-0.033,0.075h-0.083h-0.083h-0.083h-0.083h-0.082h-0.091 h-0.083h-0.083h-0.083h-0.083h-0.083h-0.083h-0.083h-0.082h-0.083h-0.091h-0.083h-0.083h-0.083h-0.083l0.033-0.075l0.033-0.075 l0.033-0.075l0.033-0.083l0.025-0.074l0.033-0.075l0.033-0.075l0.033-0.075l0.033-0.075l0.033-0.083l0.033-0.075l0.033-0.075 l0.025-0.075l0.033-0.075l0.033-0.075l0.033-0.083l0.033-0.075l0.033-0.075l0.033-0.075l0.033-0.075l0.025-0.075l0.033-0.083 l0.033-0.075l0.033-0.075l0.033-0.075l0.033-0.075l0.033-0.075l0.033-0.083l0.025-0.075l0.033-0.075l0.033-0.075l0.033-0.075 l0.033-0.075l0.033-0.083l0.033-0.075l0.033-0.075l0.025-0.075l0.033-0.075l0.033-0.075l0.033-0.083l0.033-0.075l0.033-0.075 l0.033-0.075l0.033-0.075l0.025-0.075l0.033-0.074l0.033-0.083l0.033-0.075l0.033-0.075l0.033-0.075l0.033-0.075l0.033-0.075 l0.025-0.083l0.033-0.075l0.033-0.075l0.033-0.075l0.033-0.075l0.033-0.075l0.033-0.083l0.033-0.075l0.025-0.075l0.033-0.075 l0.033-0.075l0.033-0.075l0.033-0.083l0.033-0.075l0.033-0.075l0.033-0.075l0.024-0.075l0.033-0.075l0.033-0.083l0.033-0.075 l0.033-0.075l0.033-0.075l0.033-0.075l0.033-0.075l0.025-0.083l0.033-0.075l0.033-0.075l0.033-0.075h0.083h0.075h0.083h0.083 h0.083h0.074h0.083h0.083h0.083h0.074h0.082h0.083h0.083h0.074h0.083h0.083h0.083h0.074h0.083l0.033,0.075l0.033,0.075 l0.033,0.075l0.033,0.083l0.025,0.075l0.033,0.075l0.033,0.075l0.033,0.075l0.033,0.075l0.033,0.083l0.033,0.075l0.033,0.075 l0.024,0.075l0.033,0.075l0.033,0.075l0.033,0.083l0.033,0.075l0.033,0.075l0.033,0.075l0.033,0.075l0.025,0.075l0.033,0.083 l0.033,0.075l0.033,0.075l0.033,0.075l0.033,0.075l0.033,0.075l0.033,0.083l0.025,0.075l0.033,0.075l0.033,0.075l0.033,0.075 l0.033,0.075l0.033,0.083l0.033,0.074l0.033,0.075l0.024,0.075l0.033,0.075l0.033,0.075l0.033,0.075l0.033,0.083l0.033,0.075 l0.033,0.075l0.033,0.075l0.025,0.075l0.033,0.075l0.033,0.083l0.033,0.075l0.033,0.075l0.033,0.075l0.033,0.075l0.033,0.075 l0.025,0.083l0.033,0.075l0.033,0.075l0.033,0.075l0.033,0.075l0.033,0.075l0.033,0.083l0.033,0.075l0.024,0.075l0.033,0.075 l0.033,0.075l0.033,0.075l0.033,0.083l0.033,0.075l0.033,0.075l0.033,0.075l0.025,0.075l0.033,0.075l0.033,0.083l0.033,0.075 l0.033,0.075l0.033,0.075l0.033,0.075l0.033,0.074l0.025,0.083l0.033,0.075l0.033,0.075l0.033,0.075H-594.132z M-601.372-240.152l-0.066,0.05l-0.058,0.042l-0.066,0.05l-0.066,0.041l-0.066,0.05l-0.066,0.041l-0.066,0.042l-0.075,0.041 l-0.074,0.042l-0.074,0.041l-0.075,0.033l-0.074,0.042l-0.083,0.033l-0.074,0.033l-0.083,0.033l-0.074,0.033l-0.074,0.025 l-0.075,0.025l-0.074,0.025l-0.083,0.025l-0.074,0.025l-0.083,0.017l-0.074,0.017l-0.083,0.017l-0.083,0.017l-0.083,0.008 l-0.091,0.008l-0.083,0.008l-0.091,0.008l-0.083,0.008l-0.091,0.008h-0.091h-0.091h-0.091h-0.083l-0.082-0.008l-0.091-0.008 l-0.082-0.008l-0.083-0.008l-0.083-0.008l-0.083-0.017l-0.083-0.017l-0.074-0.017l-0.083-0.017l-0.074-0.025l-0.083-0.017 l-0.075-0.025l-0.074-0.033l-0.074-0.025l-0.082-0.033l-0.075-0.033l-0.074-0.033l-0.074-0.033l-0.075-0.041l-0.066-0.041 l-0.074-0.041l-0.066-0.042l-0.066-0.041l-0.066-0.05l-0.066-0.05l-0.066-0.05l-0.058-0.05l-0.058-0.05l-0.058-0.058 l-0.058-0.05l-0.058-0.058l-0.058-0.058l-0.05-0.058l-0.049-0.066l-0.05-0.058l-0.042-0.066l-0.049-0.066l-0.041-0.066 l-0.041-0.066l-0.042-0.075l-0.041-0.066l-0.033-0.075l-0.033-0.075l-0.033-0.075l-0.033-0.075l-0.025-0.066l-0.033-0.075 l-0.017-0.075l-0.024-0.075l-0.017-0.083l-0.025-0.075l-0.017-0.083l-0.008-0.075l-0.017-0.083l-0.008-0.075l-0.008-0.083 l-0.008-0.083l-0.008-0.083v-0.091v-0.083v-0.017v-0.083l0.008-0.091v-0.083l0.008-0.083l0.008-0.091l0.017-0.083l0.008-0.083 l0.017-0.075l0.025-0.083l0.017-0.083l0.024-0.075l0.025-0.083l0.025-0.075l0.033-0.083l0.033-0.075l0.033-0.075l0.033-0.075 l0.033-0.075l0.041-0.075l0.042-0.066l0.041-0.066l0.041-0.066l0.042-0.066l0.049-0.066l0.05-0.066l0.049-0.066l0.05-0.058 l0.058-0.058l0.05-0.058l0.058-0.058l0.058-0.058l0.058-0.05l0.066-0.058l0.058-0.05l0.066-0.05l0.066-0.041l0.066-0.05 l0.066-0.041l0.066-0.041l0.074-0.042l0.075-0.041l0.074-0.041l0.074-0.033l0.075-0.033l0.083-0.042l0.066-0.025l0.083-0.025 l0.075-0.033l0.074-0.017l0.074-0.025l0.083-0.017l0.074-0.025l0.083-0.017l0.083-0.008l0.083-0.017l0.083-0.008l0.082-0.008 l0.083-0.008l0.083-0.008h0.091h0.083h0.091h0.091l0.091,0.008l0.091,0.008h0.083l0.083,0.008l0.091,0.017l0.075,0.008 l0.082,0.017l0.083,0.017l0.075,0.017l0.074,0.017l0.074,0.017l0.075,0.025l0.074,0.017l0.066,0.025l0.075,0.025l0.074,0.033 l0.074,0.033l0.075,0.033l0.074,0.041l0.074,0.033l0.066,0.041l0.074,0.041l0.066,0.041l0.075,0.042l0.066,0.05l0.066,0.042 l0.066,0.05l0.066,0.05l0.066,0.058l0.066,0.05l-0.05,0.066l-0.058,0.058l-0.05,0.066l-0.058,0.066l-0.05,0.066l-0.049,0.058 l-0.058,0.066l-0.049,0.066l-0.05,0.058l-0.058,0.066l-0.05,0.066l-0.058,0.066l-0.05,0.058l-0.049,0.066l-0.058,0.066 l-0.049,0.066l-0.058,0.058l-0.049,0.066l-0.066-0.05l-0.066-0.058l-0.066-0.042l-0.066-0.05l-0.066-0.041l-0.066-0.042 l-0.066-0.041l-0.074-0.042l-0.066-0.033l-0.066-0.033l-0.066-0.025l-0.074-0.025l-0.074-0.025l-0.075-0.017l-0.082-0.017 l-0.083-0.017l-0.083-0.008l-0.091-0.008l-0.091-0.008h-0.091h-0.083l-0.083,0.008l-0.075,0.008l-0.083,0.017l-0.074,0.017 l-0.075,0.025l-0.074,0.025l-0.074,0.033l-0.074,0.033l-0.066,0.041l-0.066,0.042l-0.066,0.042l-0.058,0.05l-0.058,0.05 l-0.058,0.05l-0.05,0.058l-0.058,0.058l-0.05,0.066l-0.041,0.058l-0.042,0.066l-0.041,0.075l-0.042,0.066l-0.033,0.075 l-0.025,0.075l-0.033,0.075l-0.025,0.083l-0.017,0.083l-0.017,0.075l-0.017,0.091l-0.008,0.083l-0.008,0.083v0.091v0.017v0.083 l0.008,0.083l0.008,0.075l0.008,0.083l0.017,0.075l0.017,0.075l0.017,0.075l0.025,0.075l0.024,0.066l0.033,0.083l0.033,0.075 l0.041,0.075l0.042,0.066l0.041,0.066l0.049,0.066l0.05,0.058l0.058,0.058l0.05,0.058l0.057,0.05l0.066,0.05l0.066,0.05 l0.066,0.041l0.066,0.041l0.074,0.033l0.074,0.033l0.075,0.033l0.083,0.025l0.083,0.025l0.083,0.017l0.083,0.017l0.083,0.008 l0.091,0.008h0.091h0.099l0.091-0.008l0.091-0.008l0.083-0.008l0.083-0.017l0.083-0.017l0.083-0.025l0.074-0.017l0.074-0.033 l0.066-0.033l0.074-0.033l0.058-0.033l0.066-0.042v-0.083v-0.083v-0.083v-0.083v-0.091v-0.083v-0.083v-0.083v-0.083h-0.083 h-0.075h-0.083h-0.083h-0.083h-0.075h-0.083h-0.083h-0.083h-0.075h-0.083h-0.083h-0.083h-0.075h-0.083v-0.083v-0.075v-0.083 v-0.083v-0.083v-0.075v-0.083v-0.083v-0.083v-0.075v-0.083v-0.083v-0.083v-0.075v-0.083h0.083h0.083h0.083h0.082h0.083h0.083 h0.083h0.083h0.082h0.083h0.083h0.083h0.083h0.082h0.083h0.083h0.082h0.083h0.083h0.083h0.083h0.082h0.083h0.083h0.083h0.083 h0.083h0.082h0.083h0.082h0.083h0.082h0.083v0.083v0.083v0.083v0.075v0.083v0.083v0.083v0.083v0.083v0.075v0.083v0.083v0.083 v0.083v0.083v0.083v0.075v0.083v0.083v0.083v0.083v0.083v0.083v0.075v0.083v0.083v0.083v0.083v0.083v0.075v0.083v0.083v0.083 L-601.372-240.152z" transform="translate(623.23 286.175)"/><path fill="#fff" d="M-293.795-454.08h3.582v-2.771h-3.582v-5.657h3.725v-2.771h-6.766v19.997h6.823v-2.771h-3.781 V-454.08z" transform="translate(312.995 481.16)"/><path fill="#fff" d="M-545.213-446.997v4.514c0,0.8-0.37,1.171-1.137,1.171h-0.569c-0.796,0-1.166-0.371-1.166-1.171 v-12.627c0-0.8,0.37-1.171,1.166-1.171h0.512c0.768,0,1.137,0.371,1.137,1.171v3.914h2.985v-4.086 c0-2.485-1.194-3.685-3.667-3.685h-1.479c-2.473,0-3.696,1.228-3.696,3.714v12.912c0,2.486,1.223,3.714,3.696,3.714h1.507 c2.474,0,3.696-1.228,3.696-3.714v-4.656H-545.213z" transform="translate(590.07 474.677)"/><path fill="#fff" d="M34.294,35.879h3.042V15.881h-3.042V35.879z"/><path fill="#fff" d="M-398.446-481.38c0,0.8-0.369,1.172-1.137,1.172h-1.251v-7.371h1.251 c0.768,0,1.137,0.371,1.137,1.171V-481.38z M-399.1-490.265h-4.776v19.997h3.042v-7.256h1.734c2.473,0,3.696-1.228,3.696-3.713 v-5.314C-395.404-489.036-396.627-490.265-399.1-490.265" transform="translate(428.326 506.146)"/><path fill="#fff" fill-rule="evenodd" d="M-333.696-136.76h17.079l-8.718,2.875L-333.696-136.76z" clip-rule="evenodd" transform="translate(357.642 190.875)"/></svg>