<svg xmlns="http://www.w3.org/2000/svg"  viewBox="0 0 64 64" width="128px" height="128px" baseProfile="basic"><path fill="#8d6c9f" d="M6.37,18.322c-0.374,0-0.732-0.21-0.903-0.57l-0.86-1.805c-0.238-0.499-0.026-1.095,0.472-1.333	c0.504-0.237,1.097-0.025,1.333,0.473l0.86,1.805C7.51,17.39,7.298,17.987,6.8,18.225C6.66,18.291,6.514,18.322,6.37,18.322z"/><path fill="#8d6c9f" d="M10.679,16.269c-0.374,0-0.732-0.21-0.903-0.569l-0.861-1.806c-0.238-0.499-0.026-1.095,0.472-1.333	c0.501-0.239,1.097-0.026,1.333,0.472l0.861,1.806c0.238,0.499,0.026,1.095-0.472,1.333C10.97,16.237,10.822,16.269,10.679,16.269z"/><path fill="#8d6c9f" d="M14.986,14.215c-0.374,0-0.732-0.21-0.903-0.57l-0.86-1.806c-0.238-0.499-0.026-1.095,0.473-1.333	c0.501-0.238,1.095-0.025,1.332,0.473l0.86,1.806c0.238,0.499,0.026,1.095-0.473,1.333C15.276,14.184,15.13,14.215,14.986,14.215z"/><path fill="#8d6c9f" d="M19.295,12.162c-0.374,0-0.732-0.21-0.903-0.57l-0.86-1.805c-0.238-0.499-0.026-1.095,0.472-1.333	c0.504-0.237,1.097-0.025,1.333,0.473l0.86,1.805c0.238,0.499,0.026,1.095-0.472,1.333C19.585,12.13,19.438,12.162,19.295,12.162z"/><path fill="#8d6c9f" d="M23.604,10.108c-0.374,0-0.732-0.21-0.903-0.57l-0.86-1.806c-0.238-0.499-0.026-1.095,0.473-1.333	s1.096-0.025,1.332,0.473l0.86,1.806c0.238,0.499,0.026,1.095-0.473,1.333C23.894,10.077,23.747,10.108,23.604,10.108z"/><path fill="#8d6c9f" d="M27.911,8.055c-0.374,0-0.732-0.21-0.903-0.57l-0.86-1.806c-0.238-0.499-0.026-1.095,0.473-1.333	c0.499-0.237,1.096-0.026,1.332,0.473l0.86,1.806c0.238,0.499,0.026,1.095-0.473,1.333C28.201,8.024,28.055,8.055,27.911,8.055z"/><path fill="#8d6c9f" d="M32.22,6.001c-0.374,0-0.732-0.21-0.903-0.57l-0.86-1.805c-0.238-0.499-0.026-1.095,0.472-1.333	c0.503-0.237,1.097-0.025,1.333,0.473l0.86,1.805c0.238,0.499,0.026,1.095-0.472,1.333C32.51,5.97,32.363,6.001,32.22,6.001z"/><path fill="#ed7899" d="M33.271,56.553l-2.541-6.512l24.3,1.271l-1.112,10.482L33.271,56.553z M38.988,6.206L5,22.406	l5.241,24.3h6.988l-1.271-17.471l1.112-0.318L21.2,46.706h7.306l-0.318-21.282l1.112-0.318l3.653,21.6h7.624l1.747-25.571	l1.112-0.318l1.906,25.888h10.165L59,11.129L38.988,6.206z"/><path fill="#8d6c9f" d="M53.918,62.794c-0.082,0-0.165-0.01-0.246-0.031l-20.647-5.241c-0.312-0.08-0.568-0.305-0.686-0.605	l-2.541-6.512c-0.123-0.316-0.078-0.673,0.121-0.949c0.198-0.275,0.552-0.436,0.862-0.413l24.3,1.271	c0.274,0.014,0.53,0.141,0.709,0.35c0.178,0.208,0.263,0.481,0.233,0.754l-1.111,10.482c-0.03,0.289-0.185,0.549-0.423,0.715	C54.32,62.732,54.12,62.794,53.918,62.794z M34.015,55.71l19.03,4.831l0.879-8.286l-21.699-1.134L34.015,55.71z M55.506,47.706	H45.341c-0.523,0-0.959-0.404-0.997-0.927l-1.437-19.518l-1.333,19.513c-0.036,0.524-0.473,0.932-0.998,0.932h-7.623	c-0.488,0-0.904-0.352-0.986-0.833L29.271,30.93l0.235,15.761c0.004,0.268-0.1,0.526-0.288,0.717	c-0.188,0.191-0.444,0.298-0.712,0.298H21.2c-0.465,0-0.869-0.321-0.974-0.774l-2.88-12.403l0.88,12.104	c0.021,0.277-0.075,0.55-0.265,0.754c-0.189,0.203-0.455,0.319-0.732,0.319h-6.988c-0.471,0-0.878-0.329-0.978-0.789l-5.241-24.3	c-0.098-0.453,0.129-0.914,0.547-1.114l33.988-16.2c0.21-0.1,0.446-0.123,0.67-0.068l20.012,4.923	c0.482,0.119,0.805,0.574,0.756,1.069l-3.494,35.577C56.451,47.316,56.021,47.706,55.506,47.706z M46.27,45.706h8.33l3.32-33.812	L39.096,7.262L6.145,22.968l4.904,22.738h5.105l-1.192-16.398c-0.034-0.473,0.267-0.904,0.722-1.034l1.111-0.318	c0.266-0.076,0.547-0.04,0.782,0.1c0.236,0.139,0.405,0.369,0.467,0.636l3.95,17.015h5.497l-0.303-20.268	c-0.007-0.452,0.291-0.853,0.726-0.977l1.111-0.317c0.272-0.079,0.567-0.037,0.808,0.116c0.241,0.151,0.405,0.398,0.453,0.679	l3.512,20.767h5.845l1.683-24.639c0.029-0.42,0.318-0.778,0.724-0.893l1.112-0.317c0.286-0.083,0.601-0.031,0.847,0.142	c0.247,0.172,0.403,0.446,0.425,0.747L46.27,45.706z"/></svg>