<svg xmlns="http://www.w3.org/2000/svg"  viewBox="0 0 64 64" width="128px" height="128px" baseProfile="basic"><circle cx="32" cy="32" r="28" fill="#ced9ed" stroke="#8d6c9f" stroke-miterlimit="10" stroke-width="2"/><circle cx="31.875" cy="31.875" r="22.75" fill="#acb7d0"/><path fill="#e2e9f7" stroke="#8d6c9f" stroke-linejoin="round" stroke-miterlimit="10" stroke-width="2" d="M12.5,36.5	c0-9.773,9.331-19.469,17.962-21.5c0,0-3.808,3.046-3.808,5.077c0,4.188,2.538,2.538,2.538,2.538s0,15.485,0,16.5	c0,1.015,1.142,1.269,2.538,1.269c1.396,0,3.808-1.65,3.808-1.65s0-12.058,0-13.581c0-1.523-1.777-3.173-2.538-3.808	c2.158,0,3.808,1.269,3.808,1.269s1.65-3.173,8.885-5.077c-1.142,1.396-3.808,5.204-3.808,6.473c0,1.269,0,13.581,0,14.342	c0,0.762,0.888,0.762,1.396,0.762c0.508,0,3.427-0.762,6.219-3.808c0,0.888-4.569,7.869-10.154,11.423l-3.808-3.808L31.731,48	c0,0-7.742-0.888-11.423-6.346c1.015,0.127,2.538,0.254,2.538-1.269c0-1.523,0-11.677,0-12.692c0-1.015-0.508-1.523-1.269-1.523	C20.688,26.169,17.196,28.25,12.5,36.5z"/><path fill="#8d6c9f" d="M42.414,49.666c-0.471,0.286-0.622,0.901-0.335,1.373l1.037,1.708 c0.286,0.471,0.901,0.622,1.373,0.335c0.471-0.286,0.622-0.901,0.335-1.373l-1.037-1.708C43.5,49.53,42.886,49.38,42.414,49.666z"/><path fill="#8d6c9f" d="M47.581,46.621c-0.413-0.367-1.044-0.33-1.411,0.082c-0.349,0.392-0.335,0.989,0.032,1.364 l1.445,1.378c0.403,0.381,1.039,0.364,1.421-0.039c0.381-0.403,0.364-1.039-0.039-1.421L47.581,46.621z"/><path fill="#8d6c9f" d="M33.226,52.347c-0.551,0.012-0.99,0.468-0.978,1.02c0,0.002,0,0.004,0,0.007l0.044,1.996 c0.035,0.551,0.511,0.969,1.061,0.933c0.519-0.033,0.925-0.458,0.935-0.977l-0.044-1.996c-0.008-0.552-0.463-0.992-1.015-0.984 C33.228,52.348,33.227,52.348,33.226,52.347z"/><path fill="#8d6c9f" d="M50.39,42.354c-0.495-0.244-1.094-0.042-1.339,0.453c-0.23,0.466-0.065,1.03,0.38,1.298l1.752,0.959 c0.495,0.244,1.094,0.042,1.339-0.453c0.23-0.466,0.065-1.03-0.38-1.298L50.39,42.354z"/><path fill="#8d6c9f" d="M37.996,51.614c-0.527,0.157-0.828,0.712-0.673,1.24l0.552,1.909 c0.136,0.536,0.68,0.859,1.214,0.723c0.536-0.136,0.859-0.68,0.723-1.214c-0.006-0.022-0.012-0.044-0.019-0.065l-0.557-1.918 C39.078,51.76,38.523,51.459,37.996,51.614z"/><g><path fill="#8d6c9f" d="M36.648,10.763c0.549,0.056,1.039-0.344,1.095-0.893c0.043-0.426-0.19-0.833-0.58-1.01 c-0.808-0.21-1.627-0.376-2.454-0.497c-0.541-0.113-1.07,0.234-1.182,0.774c-0.113,0.541,0.234,1.07,0.774,1.182 c0.04,0.009,0.082,0.015,0.123,0.018C35.172,10.439,35.915,10.581,36.648,10.763z"/><path fill="#8d6c9f" d="M13.73,19.715c3.66-5.651,9.802-9.213,16.525-9.582c0.551-0.028,0.975-0.498,0.947-1.049 c-0.028-0.551-0.498-0.975-1.049-0.947c-7.344,0.411-14.052,4.298-18.057,10.467c-0.313,0.455-0.198,1.077,0.257,1.39 c0.455,0.313,1.077,0.198,1.39-0.257c0.011-0.015,0.021-0.031,0.03-0.047L13.73,19.715z"/></g></svg>